<svg width="480" height="112" viewBox="0 0 480 112" xmlns="http://www.w3.org/2000/svg"><defs><linearGradient x1="49.996%" y1="0%" x2="49.996%" y2="100%" id="a"><stop stop-color="#0006AE" offset="0%"/><stop stop-color="#00084B" offset="100%"/></linearGradient><linearGradient x1="49.981%" y1="53%" x2="49.981%" y2="100%" id="b"><stop stop-color="#6CDDFF" offset="0%"/><stop stop-color="#008CF2" offset="98.591%"/></linearGradient></defs><path d="M475.192 106.135H33.58a30.371 30.371 0 01-20.789-8.658 24.296 24.296 0 01-7.054-17.518V30.414c0-5.97 2.979-11.693 8.383-16.127 6.022-4.952 14.493-7.905 24.51-8.55h408.986c10.344.909 27.603 6.315 27.603 31.519l-.027 68.88z" fill="url(#a)"/><path d="M56.764 79.817c-6.533 0-12.574-.769-13.822-7.59-.155-4.866 0-7.516 0-7.516l71.799-.064V36.56c0-8.602-16.09-19.349-26.423-19.349l-45.203.045c-8.145 0-25.922 3.302-25.904 17.83l.046 40.923c0 11.57 11.125 18.67 25.74 18.652l43.507-.054c12.948 0 21.868-7.743 21.868-14.862-.045 0-45.066.072-51.608.072zM44.51 35.647c1.613-2.271 4.83-2.38 4.83-2.38l35.38-.045s6.14 0 6.104 7.979c-.036 7.978-.064 7.517-.064 7.517l-47.872.045v-7.354a10.959 10.959 0 011.622-5.763z" fill="url(#b)"/><path fill="url(#b)" d="M204.622 17.211l-29.061.037-19.02 22.145-18.368-22.109-29.758.037 32.504 37.571-33.827 39.77 32.005-.037 16.891-22.51 16.148 22.382h29.115l-29.387-38.903 23.161-27.141 7.549-8.844z"/><path fill="url(#b)" d="M277.264 17.211l-64.93.073-13.45 15.775 20.945-.028.073 61.63 27.338-.027-.064-61.63 30.115-.036zM439.206 17.211l-57.06.063v1.52c.772 8 6.36 14.518 19.701 14.464h29.562s3.972-.127 5.453 1.944c1.708 2.377 1.408 6.88 1.408 6.88v6.88l-40.976.044c-10.905 0-22.491 0-22.473 19.89v5.93c0 14.519 7.797 19.889 23.855 19.835l64.113-.073-.073-61.059c.01-8.046-9.37-16.336-23.51-16.318zM402.32 79.79s-4.208 0-4.217-7.793c0-8.136 4.226-7.62 4.226-7.62h35.969v15.368l-35.978.045zM350.806 64.001c17.473-.109 21.227-6.18 21.173-15.03V33.359c0-10.532-8.714-16.157-21.853-16.148l-67.098.082v77.296h.09v.072l24.047-.072V52.715l38.391 41.801h28.309L343.208 64.01l7.598-.009zM307.147 32.96h39.516s4.85-.509 4.932 7.515c.082 8.024-4.914 8.179-4.914 8.179l-39.534.045V32.96z"/><path d="M471.422 11.205C465.798 4.823 457.456.912 447.307 0H38.086C26.901.711 17.323 4.112 10.4 9.828 3.694 15.353.002 22.646.002 30.34v49.714a29.912 29.912 0 008.726 21.488 35.94 35.94 0 0024.679 10.33H480V37.197c0-10.758-2.835-19.538-8.578-25.992zm3.017 95.106H33.379a30.262 30.262 0 01-20.762-8.688A24.439 24.439 0 015.57 80.046V30.332c0-5.99 2.975-11.734 8.372-16.183 6.015-4.968 14.475-7.931 24.48-8.579h408.475c10.331.912 27.568 6.337 27.568 31.627l-.027 69.114z" fill="url(#b)"/></svg>